<svg width="24" height="24" viewBox="0 0 24 24" fill="none" xmlns="http://www.w3.org/2000/svg">
<path d="M22.08 21.24C22.1071 21.4805 22.0827 21.724 22.0088 21.9545C21.935 22.1849 21.8132 22.3972 21.6514 22.5772C21.4892 22.7568 21.2907 22.9003 21.0692 22.9977C20.8476 23.0952 20.6078 23.1448 20.3657 23.1429H3.63429C3.39218 23.1448 3.15244 23.0952 2.93083 22.9977C2.70922 22.9003 2.51078 22.7568 2.34857 22.5772C2.1868 22.3972 2.06498 22.1849 1.99111 21.9545C1.91724 21.724 1.893 21.4805 1.92 21.24L3.42857 7.71429H20.5714L22.08 21.24Z" fill="#77892B" stroke="#77892B" stroke-linecap="round" stroke-linejoin="round"/>
<path d="M7.71429 7.71429V5.14286C7.71429 4.00622 8.16582 2.91612 8.96955 2.1124C9.77327 1.30868 10.8634 0.857147 12 0.857147C13.1366 0.857147 14.2267 1.30868 15.0305 2.1124C15.8342 2.91612 16.2857 4.00622 16.2857 5.14286V7.71429" stroke="#133216" stroke-linecap="round" stroke-linejoin="round"/>
<rect x="7" y="10" width="10" height="10" rx="5" fill="white"/>
<path d="M9.47159 18V17.1136L11.5426 15.196C11.7188 15.0256 11.8665 14.8722 11.9858 14.7358C12.107 14.5994 12.1989 14.4659 12.2614 14.3352C12.3239 14.2027 12.3551 14.0597 12.3551 13.9062C12.3551 13.7358 12.3163 13.589 12.2386 13.4659C12.161 13.3409 12.0549 13.2453 11.9205 13.179C11.786 13.1108 11.6335 13.0767 11.4631 13.0767C11.285 13.0767 11.1297 13.1127 10.9972 13.1847C10.8646 13.2566 10.7623 13.3598 10.6903 13.4943C10.6184 13.6288 10.5824 13.7888 10.5824 13.9744H9.41477C9.41477 13.5937 9.50095 13.2633 9.6733 12.983C9.84564 12.7027 10.0871 12.4858 10.3977 12.3324C10.7083 12.179 11.0663 12.1023 11.4716 12.1023C11.8883 12.1023 12.2509 12.1761 12.5597 12.3239C12.8703 12.4697 13.1117 12.6723 13.2841 12.9318C13.4564 13.1913 13.5426 13.4886 13.5426 13.8239C13.5426 14.0436 13.4991 14.2604 13.4119 14.4744C13.3267 14.6884 13.1742 14.9261 12.9545 15.1875C12.7348 15.447 12.4252 15.7585 12.0256 16.1222L11.1761 16.9545V16.9943H13.6193V18H9.47159Z" fill="#77892B"/>
</svg>
