<svg width="21" height="15" viewBox="0 0 21 15" fill="none" xmlns="http://www.w3.org/2000/svg">
<path d="M7 8L9.73 11.51C9.82212 11.6297 9.94016 11.7269 10.0752 11.7945C10.2103 11.862 10.359 11.8982 10.51 11.9C10.6586 11.9018 10.8057 11.8703 10.9406 11.8081C11.0755 11.7458 11.1949 11.6542 11.29 11.54L20 1" stroke="#77892B" stroke-width="2" stroke-linecap="round" stroke-linejoin="round"/>
<path d="M1.5 9.55005L4.23 13.06C4.32212 13.1797 4.44016 13.277 4.57525 13.3446C4.71034 13.4121 4.85898 13.4482 5.01 13.45C5.15859 13.4518 5.3057 13.4203 5.44063 13.3581C5.57555 13.2958 5.6949 13.2042 5.79 13.09L7 11.6258M14.5 2.55005L10.145 7.82002" stroke="#77892B" stroke-width="2" stroke-linecap="round" stroke-linejoin="round"/>
</svg>
