<svg width="19" height="20" viewBox="0 0 19 20" fill="none" xmlns="http://www.w3.org/2000/svg">
<path d="M9.49999 11.8182C11.6338 11.8182 13.3636 10.0884 13.3636 7.95455C13.3636 5.82072 11.6338 4.09091 9.49999 4.09091C7.36616 4.09091 5.63635 5.82072 5.63635 7.95455C5.63635 10.0884 7.36616 11.8182 9.49999 11.8182Z" fill="#77892B" stroke="#77892B" stroke-linecap="round" stroke-linejoin="round"/>
<path d="M4.09094 14.9091C4.65622 13.9652 5.4507 13.1851 6.39798 12.6439C7.34527 12.1025 8.41351 11.8182 9.50002 11.8182C10.5865 11.8182 11.6548 12.1025 12.6021 12.6439C13.5494 13.1851 14.3438 13.9652 14.9091 14.9091" stroke="#77892B" stroke-linecap="round" stroke-linejoin="round"/>
<path d="M9.50003 18.6364C7.18185 18.6364 4.86367 17.3485 4.09094 16.3182C4.09094 15.5455 7.95458 14 9.50003 14C11.0455 14 14.9091 15.5455 14.9091 16.3182C14.9091 17.0909 12.6861 18.6364 9.50003 18.6364Z" fill="#77892B" stroke="#77892B"/>
<path d="M9.5 18C14.1945 18 18 14.1945 18 9.5C18 4.80558 14.1945 1 9.5 1C4.80558 1 1 4.80558 1 9.5C1 14.1945 4.80558 18 9.5 18Z" stroke="#77892B" stroke-linecap="round" stroke-linejoin="round"/>
</svg>
